<?xml version="1.0" encoding="utf-8"?>
<!-- Generator: Adobe Illustrator 20.1.0, SVG Export Plug-In . SVG Version: 6.00 Build 0)  -->
<svg version="1.1" id="Layer_4" xmlns="http://www.w3.org/2000/svg" xmlns:xlink="http://www.w3.org/1999/xlink" x="0px" y="0px"
	 viewBox="0 0 144 144" style="enable-background:new 0 0 144 144;" xml:space="preserve">
<style type="text/css">
	.st0{fill:none;stroke:#000000;stroke-miterlimit:10;}
</style>
<path class="st0" d="M26.2,39.6h92.3l0.2,67.3H25.9l-0.2-54 M118.8,94.6 M25.6,94.6 M60,107l-8.2,10.9H93L84.3,107
	C84.3,107,60.7,107,60,107z M71,100.5c0,1.1,0.9,2,2,2s2-0.9,2-2s-0.9-2-2-2S71,99.3,71,100.5z M72.4,22.5c-15.1,0-28.7,6.6-38.1,17
	h75.9C100.9,29.1,87.5,22.5,72.4,22.5z M72.4,124.2c15.4,0,29.2-6.5,38.5-17.3H33.6C43,117.8,56.9,124.2,72.4,124.2z M118.5,52.3
	c3.2,6.7,4.5,13.1,4.5,21s-1.4,14.8-4.6,21.5l-92.2,0.5c-3.2-6.6-5-14.1-5-21.9s1.3-14.3,4.5-21 M72.4,124.2v11.5 M72.4,11v11.5
	 M21.2,73.4H7.8 M136.5,73.4H123 M56.5,44.8H33.2v20h23.3V44.8z M112.6,44.9H66.1v3.9h46.5V44.9z M85.3,53.1H66.1v3.5h19.1V53.1z
	 M112.6,53.3H91.4v3.2h21.2V53.3z M75.4,61.2h-9.2v3.1h9.2V61.2z M93.6,61.2H79.1v3.1h14.6V61.2z M112.6,61.2H98v3.1h14.6V61.2z
	 M79.5,70.6H33.1v3.9h46.5V70.6z M52.2,78.8H33.1v3.5h19.1V78.8z M79.5,78.9H58.3v3.2h21.2V78.9z M42.3,86.8h-9.2v3.1h9.2V86.8z
	 M60.6,86.8H46v3.1h14.6V86.8z M79.5,86.9H65V90h14.6V86.9z M112.6,70.4H84.3v20h28.3V70.4z"/>
</svg>
