<?xml version="1.0" encoding="utf-8"?>
<!-- Generator: Adobe Illustrator 20.1.0, SVG Export Plug-In . SVG Version: 6.00 Build 0)  -->
<svg version="1.1" id="Layer_2" xmlns="http://www.w3.org/2000/svg" xmlns:xlink="http://www.w3.org/1999/xlink" x="0px" y="0px"
	 viewBox="0 0 144 144" style="enable-background:new 0 0 144 144;" xml:space="preserve">
	 <style type="text/css">

	   .path {
	 	 stroke-dasharray: 1000;
	 	 stroke-dashoffset: 1000;
	 	 animation: dash 5s linear forwards;
	   }

	   @keyframes dash {
	 	 to {
	 		stroke-dashoffset: 0;
	 	 }
	   }
	 </style>
<path class="path" stroke="#cfc2b4" fill="none" d="M34.5,27.4h75v89.4h-75V39.6 M67.2,39.8H43.9v23.2h23.3V39.8z M101.4,39.6H76.6v3.5h24.8V39.6z M85.5,47.9h-8.9
	v3.2h8.9V47.9z M98.1,48h-9.8v3h9.8V48z M82,55.9h-5.4V59H82V55.9z M92.7,55.9h-8.5V59h8.5V55.9z M103.5,56H95v3.1h8.5V56z
	 M85.5,64.1H77v3.1h8.5V64.1z M100.2,63.9H87.8v3.3h12.4V63.9z M100.1,78.3H77.3v23.3h22.8V78.3z M58.4,86.6H44.2v2.9h14.2V86.6z
	 M72.5,86.5h-11v3.1h11V86.5z M49,94.5h-5v3h5V94.5z M59.9,94.5h-8.5v3.1h8.5V94.5z M68.7,78.4H44.1v3.2h24.6V78.4z M67.1,102.6
	H54.9v3.2h12.2V102.6z M52.5,102.6h-8.6v2.9h8.6V102.6z M72.4,122.5c8.2,0,16-2,22.9-5.5H49.5C56.4,120.5,64.1,122.5,72.4,122.5z
	 M122.8,72.1c0-13-4.9-24.8-13-33.8v67.5C117.8,97,122.8,85.1,122.8,72.1z M22,72.1c0,12.6,4.6,24.1,12.2,32.9V39.2
	C26.6,48,22,59.5,22,72.1z M72.4,21.8c-8.4,0-16.4,2.1-23.4,5.8h46.7C88.8,23.8,80.8,21.8,72.4,21.8z M72.4,122.5V136 M72.4,8.2
	v13.5 M22,72.1H8 M136.8,72.1h-14"/>
</svg>
